<svg preserveAspectRatio="none" class="wave" xmlns="http://www.w3.org/2000/svg" viewBox="0 0 1440 320"><path class="wave-svg" fill="#181823" fill-opacity="1" d="M0,128L34.3,154.7C68.6,181,137,235,206,229.3C274.3,224,343,160,411,133.3C480,107,549,117,617,144C685.7,171,754,213,823,213.3C891.4,213,960,171,1029,144C1097.1,117,1166,107,1234,101.3C1302.9,96,1371,96,1406,96L1440,96L1440,320L1405.7,320C1371.4,320,1303,320,1234,320C1165.7,320,1097,320,1029,320C960,320,891,320,823,320C754.3,320,686,320,617,320C548.6,320,480,320,411,320C342.9,320,274,320,206,320C137.1,320,69,320,34,320L0,320Z"></path></svg>